<mxfile host="app.diagrams.net" modified="2024-04-18T13:14:57.496Z" agent="Mozilla/5.0 (Windows NT 10.0; Win64; x64) AppleWebKit/537.36 (KHTML, like Gecko) Chrome/123.0.0.0 Safari/537.36" etag="ahk0DjpF7c7f_hxq_JeD" version="24.2.5" type="github">
  <diagram name="Page-1" id="m9KKk05zU39P-Wt5zaCn">
    <mxGraphModel dx="1674" dy="746" grid="1" gridSize="10" guides="1" tooltips="1" connect="1" arrows="1" fold="1" page="1" pageScale="1" pageWidth="827" pageHeight="1169" math="0" shadow="0">
      <root>
        <mxCell id="0" />
        <mxCell id="1" parent="0" />
        <mxCell id="3GiQ0fIbwwAWOUfs8bYL-1" value="" style="rounded=0;whiteSpace=wrap;html=1;" vertex="1" parent="1">
          <mxGeometry x="140" y="80" width="1310" height="990" as="geometry" />
        </mxCell>
        <mxCell id="3GiQ0fIbwwAWOUfs8bYL-37" value="" style="rounded=0;whiteSpace=wrap;html=1;" vertex="1" parent="1">
          <mxGeometry x="270" y="610" width="1030" height="400" as="geometry" />
        </mxCell>
        <mxCell id="3GiQ0fIbwwAWOUfs8bYL-2" value="" style="rounded=0;whiteSpace=wrap;html=1;" vertex="1" parent="1">
          <mxGeometry x="260" y="140" width="1030" height="400" as="geometry" />
        </mxCell>
        <mxCell id="3GiQ0fIbwwAWOUfs8bYL-3" value="admin&lt;div&gt;&lt;br&gt;&lt;/div&gt;" style="shape=umlActor;verticalLabelPosition=bottom;verticalAlign=top;html=1;" vertex="1" parent="1">
          <mxGeometry x="190" y="280" width="30" height="60" as="geometry" />
        </mxCell>
        <mxCell id="3GiQ0fIbwwAWOUfs8bYL-4" value="employé" style="shape=umlActor;verticalLabelPosition=bottom;verticalAlign=top;html=1;" vertex="1" parent="1">
          <mxGeometry x="180" y="790" width="30" height="60" as="geometry" />
        </mxCell>
        <mxCell id="3GiQ0fIbwwAWOUfs8bYL-7" value="s&#39;authentifier" style="ellipse;whiteSpace=wrap;html=1;" vertex="1" parent="1">
          <mxGeometry x="359" y="300" width="110" height="60" as="geometry" />
        </mxCell>
        <mxCell id="3GiQ0fIbwwAWOUfs8bYL-8" value="consulter tableau de&amp;nbsp;&lt;div&gt;bord personnel&lt;/div&gt;" style="ellipse;whiteSpace=wrap;html=1;" vertex="1" parent="1">
          <mxGeometry x="610" y="780" width="140" height="70" as="geometry" />
        </mxCell>
        <mxCell id="3GiQ0fIbwwAWOUfs8bYL-10" value="pointer départ/arrivée" style="ellipse;whiteSpace=wrap;html=1;" vertex="1" parent="1">
          <mxGeometry x="843.5" y="860" width="110" height="50" as="geometry" />
        </mxCell>
        <mxCell id="3GiQ0fIbwwAWOUfs8bYL-11" value="consulter tableau de&amp;nbsp;&lt;div&gt;bord admin&lt;/div&gt;" style="ellipse;whiteSpace=wrap;html=1;" vertex="1" parent="1">
          <mxGeometry x="590" y="290" width="140" height="80" as="geometry" />
        </mxCell>
        <mxCell id="3GiQ0fIbwwAWOUfs8bYL-12" value="consulter planing" style="ellipse;whiteSpace=wrap;html=1;" vertex="1" parent="1">
          <mxGeometry x="827" y="720" width="143" height="70" as="geometry" />
        </mxCell>
        <mxCell id="3GiQ0fIbwwAWOUfs8bYL-15" value="gestion employés" style="ellipse;whiteSpace=wrap;html=1;" vertex="1" parent="1">
          <mxGeometry x="810" y="315" width="110" height="50" as="geometry" />
        </mxCell>
        <mxCell id="3GiQ0fIbwwAWOUfs8bYL-16" value="consulter profil d&#39;un employé" style="ellipse;whiteSpace=wrap;html=1;" vertex="1" parent="1">
          <mxGeometry x="1050" y="220" width="105" height="50" as="geometry" />
        </mxCell>
        <mxCell id="3GiQ0fIbwwAWOUfs8bYL-17" value="" style="endArrow=none;html=1;rounded=0;" edge="1" parent="1" source="3GiQ0fIbwwAWOUfs8bYL-10" target="3GiQ0fIbwwAWOUfs8bYL-8">
          <mxGeometry width="50" height="50" relative="1" as="geometry">
            <mxPoint x="610" y="660" as="sourcePoint" />
            <mxPoint x="660" y="610" as="targetPoint" />
          </mxGeometry>
        </mxCell>
        <mxCell id="3GiQ0fIbwwAWOUfs8bYL-18" value="" style="endArrow=none;html=1;rounded=0;entryX=0.971;entryY=0.386;entryDx=0;entryDy=0;entryPerimeter=0;" edge="1" parent="1" source="3GiQ0fIbwwAWOUfs8bYL-12" target="3GiQ0fIbwwAWOUfs8bYL-8">
          <mxGeometry width="50" height="50" relative="1" as="geometry">
            <mxPoint x="610" y="660" as="sourcePoint" />
            <mxPoint x="660" y="610" as="targetPoint" />
          </mxGeometry>
        </mxCell>
        <mxCell id="3GiQ0fIbwwAWOUfs8bYL-20" value="" style="endArrow=none;html=1;rounded=0;" edge="1" parent="1" source="3GiQ0fIbwwAWOUfs8bYL-11" target="3GiQ0fIbwwAWOUfs8bYL-15">
          <mxGeometry width="50" height="50" relative="1" as="geometry">
            <mxPoint x="610" y="600" as="sourcePoint" />
            <mxPoint x="660" y="550" as="targetPoint" />
          </mxGeometry>
        </mxCell>
        <mxCell id="3GiQ0fIbwwAWOUfs8bYL-21" value="include" style="endArrow=open;endSize=12;dashed=1;html=1;rounded=0;exitX=0;exitY=0.5;exitDx=0;exitDy=0;" edge="1" parent="1" source="3GiQ0fIbwwAWOUfs8bYL-16" target="3GiQ0fIbwwAWOUfs8bYL-15">
          <mxGeometry width="160" relative="1" as="geometry">
            <mxPoint x="560" y="580" as="sourcePoint" />
            <mxPoint x="720" y="580" as="targetPoint" />
          </mxGeometry>
        </mxCell>
        <mxCell id="3GiQ0fIbwwAWOUfs8bYL-22" value="include" style="endArrow=open;endSize=12;dashed=1;html=1;rounded=0;exitX=0;exitY=0.5;exitDx=0;exitDy=0;entryX=1;entryY=0.5;entryDx=0;entryDy=0;" edge="1" source="3GiQ0fIbwwAWOUfs8bYL-23" parent="1" target="3GiQ0fIbwwAWOUfs8bYL-15">
          <mxGeometry width="160" relative="1" as="geometry">
            <mxPoint x="570" y="670" as="sourcePoint" />
            <mxPoint x="810" y="475" as="targetPoint" />
          </mxGeometry>
        </mxCell>
        <mxCell id="3GiQ0fIbwwAWOUfs8bYL-23" value="ajout employé" style="ellipse;whiteSpace=wrap;html=1;" vertex="1" parent="1">
          <mxGeometry x="1055" y="290" width="100" height="50" as="geometry" />
        </mxCell>
        <mxCell id="3GiQ0fIbwwAWOUfs8bYL-24" value="modifier employé" style="ellipse;whiteSpace=wrap;html=1;" vertex="1" parent="1">
          <mxGeometry x="1052.5" y="360" width="105" height="50" as="geometry" />
        </mxCell>
        <mxCell id="3GiQ0fIbwwAWOUfs8bYL-25" value="include" style="endArrow=open;endSize=12;dashed=1;html=1;rounded=0;exitX=0;exitY=0.5;exitDx=0;exitDy=0;" edge="1" source="3GiQ0fIbwwAWOUfs8bYL-24" parent="1" target="3GiQ0fIbwwAWOUfs8bYL-15">
          <mxGeometry width="160" relative="1" as="geometry">
            <mxPoint x="580" y="743" as="sourcePoint" />
            <mxPoint x="816" y="554" as="targetPoint" />
          </mxGeometry>
        </mxCell>
        <mxCell id="3GiQ0fIbwwAWOUfs8bYL-26" value="supprimer employé" style="ellipse;whiteSpace=wrap;html=1;" vertex="1" parent="1">
          <mxGeometry x="1047.5" y="430" width="110" height="50" as="geometry" />
        </mxCell>
        <mxCell id="3GiQ0fIbwwAWOUfs8bYL-27" value="include" style="endArrow=open;endSize=12;dashed=1;html=1;rounded=0;exitX=0;exitY=0.5;exitDx=0;exitDy=0;entryX=0.697;entryY=0.96;entryDx=0;entryDy=0;entryPerimeter=0;" edge="1" source="3GiQ0fIbwwAWOUfs8bYL-26" parent="1" target="3GiQ0fIbwwAWOUfs8bYL-15">
          <mxGeometry width="160" relative="1" as="geometry">
            <mxPoint x="590" y="843" as="sourcePoint" />
            <mxPoint x="826" y="654" as="targetPoint" />
          </mxGeometry>
        </mxCell>
        <mxCell id="3GiQ0fIbwwAWOUfs8bYL-28" value="rapport des heures travaillées" style="ellipse;whiteSpace=wrap;html=1;" vertex="1" parent="1">
          <mxGeometry x="770" y="210" width="120" height="50" as="geometry" />
        </mxCell>
        <mxCell id="3GiQ0fIbwwAWOUfs8bYL-29" value="" style="endArrow=none;html=1;rounded=0;exitX=0.97;exitY=0.375;exitDx=0;exitDy=0;exitPerimeter=0;" edge="1" parent="1" source="3GiQ0fIbwwAWOUfs8bYL-11" target="3GiQ0fIbwwAWOUfs8bYL-28">
          <mxGeometry width="50" height="50" relative="1" as="geometry">
            <mxPoint x="860" y="540" as="sourcePoint" />
            <mxPoint x="910" y="490" as="targetPoint" />
          </mxGeometry>
        </mxCell>
        <mxCell id="3GiQ0fIbwwAWOUfs8bYL-30" value="include" style="endArrow=open;endSize=12;dashed=1;html=1;rounded=0;entryX=1;entryY=0.5;entryDx=0;entryDy=0;exitX=0;exitY=0.5;exitDx=0;exitDy=0;" edge="1" parent="1" source="3GiQ0fIbwwAWOUfs8bYL-11" target="3GiQ0fIbwwAWOUfs8bYL-7">
          <mxGeometry width="160" relative="1" as="geometry">
            <mxPoint x="590" y="320" as="sourcePoint" />
            <mxPoint x="817" y="578" as="targetPoint" />
          </mxGeometry>
        </mxCell>
        <mxCell id="3GiQ0fIbwwAWOUfs8bYL-31" value="include" style="endArrow=open;endSize=12;dashed=1;html=1;rounded=0;" edge="1" parent="1" source="3GiQ0fIbwwAWOUfs8bYL-8" target="3GiQ0fIbwwAWOUfs8bYL-36">
          <mxGeometry width="160" relative="1" as="geometry">
            <mxPoint x="501" y="578" as="sourcePoint" />
            <mxPoint x="434" y="634" as="targetPoint" />
          </mxGeometry>
        </mxCell>
        <mxCell id="3GiQ0fIbwwAWOUfs8bYL-32" value="" style="endArrow=none;html=1;rounded=0;exitX=0.5;exitY=0.5;exitDx=0;exitDy=0;exitPerimeter=0;entryX=0;entryY=0.5;entryDx=0;entryDy=0;" edge="1" parent="1" source="3GiQ0fIbwwAWOUfs8bYL-4" target="3GiQ0fIbwwAWOUfs8bYL-36">
          <mxGeometry width="50" height="50" relative="1" as="geometry">
            <mxPoint x="280" y="730" as="sourcePoint" />
            <mxPoint x="330" y="680" as="targetPoint" />
          </mxGeometry>
        </mxCell>
        <mxCell id="3GiQ0fIbwwAWOUfs8bYL-34" value="" style="endArrow=none;html=1;rounded=0;entryX=0.767;entryY=0.85;entryDx=0;entryDy=0;entryPerimeter=0;exitX=0;exitY=0.5;exitDx=0;exitDy=0;" edge="1" parent="1" source="3GiQ0fIbwwAWOUfs8bYL-7" target="3GiQ0fIbwwAWOUfs8bYL-3">
          <mxGeometry width="50" height="50" relative="1" as="geometry">
            <mxPoint x="685" y="620" as="sourcePoint" />
            <mxPoint x="735" y="570" as="targetPoint" />
          </mxGeometry>
        </mxCell>
        <mxCell id="3GiQ0fIbwwAWOUfs8bYL-36" value="s&#39;authentifier" style="ellipse;whiteSpace=wrap;html=1;" vertex="1" parent="1">
          <mxGeometry x="370" y="785" width="110" height="60" as="geometry" />
        </mxCell>
        <mxCell id="3GiQ0fIbwwAWOUfs8bYL-38" value="&lt;b&gt;&lt;font style=&quot;font-size: 14px;&quot;&gt;Application web/desktop admin&amp;nbsp;&lt;/font&gt;&lt;/b&gt;" style="text;html=1;align=center;verticalAlign=middle;whiteSpace=wrap;rounded=0;" vertex="1" parent="1">
          <mxGeometry x="705" y="110" width="235" height="30" as="geometry" />
        </mxCell>
        <mxCell id="3GiQ0fIbwwAWOUfs8bYL-39" value="&lt;b&gt;&lt;font style=&quot;font-size: 14px;&quot;&gt;Application mobile employé&lt;/font&gt;&lt;/b&gt;" style="text;html=1;align=center;verticalAlign=middle;whiteSpace=wrap;rounded=0;" vertex="1" parent="1">
          <mxGeometry x="705" y="585" width="205" height="30" as="geometry" />
        </mxCell>
        <mxCell id="3GiQ0fIbwwAWOUfs8bYL-40" value="horaires supp" style="ellipse;whiteSpace=wrap;html=1;" vertex="1" parent="1">
          <mxGeometry x="1070" y="780" width="120" height="50" as="geometry" />
        </mxCell>
        <mxCell id="3GiQ0fIbwwAWOUfs8bYL-41" value="horaires travaillées" style="ellipse;whiteSpace=wrap;html=1;" vertex="1" parent="1">
          <mxGeometry x="1062.5" y="700" width="127.5" height="50" as="geometry" />
        </mxCell>
        <mxCell id="3GiQ0fIbwwAWOUfs8bYL-42" value="include" style="endArrow=open;endSize=12;dashed=1;html=1;rounded=0;exitX=0;exitY=0.5;exitDx=0;exitDy=0;" edge="1" source="3GiQ0fIbwwAWOUfs8bYL-41" parent="1" target="3GiQ0fIbwwAWOUfs8bYL-12">
          <mxGeometry width="160" relative="1" as="geometry">
            <mxPoint x="590" y="1193" as="sourcePoint" />
            <mxPoint x="924" y="802" as="targetPoint" />
          </mxGeometry>
        </mxCell>
        <mxCell id="3GiQ0fIbwwAWOUfs8bYL-43" value="include" style="endArrow=open;endSize=12;dashed=1;html=1;rounded=0;exitX=0;exitY=0.5;exitDx=0;exitDy=0;" edge="1" source="3GiQ0fIbwwAWOUfs8bYL-40" parent="1" target="3GiQ0fIbwwAWOUfs8bYL-12">
          <mxGeometry width="160" relative="1" as="geometry">
            <mxPoint x="600" y="1293" as="sourcePoint" />
            <mxPoint x="897" y="813" as="targetPoint" />
          </mxGeometry>
        </mxCell>
      </root>
    </mxGraphModel>
  </diagram>
</mxfile>
